# xmcd
#
# Track frame offsets:
# 150
# 11890
# 26547
# 37127
# 48910
# 60270
# 72157
# 84170
# 96110
# 110790
# 122829
# 136230
# 149635
# 168007
#
# Disc length: 2412 seconds
#
#
# Revision: 0
# Processed by: cddbd v1.5.1PL0 Copyright (c) Steve Scherf et al.
# Submitted via: FreeRIP 2.941 
#
DISCID=bc096a0e
DTITLE=rege de anagé - folia
DYEAR=1997
DGENRE=Country
TTITLE0=folia
TTITLE1=o mar
TTITLE2=o teu chamego
TTITLE3=nosso amor
TTITLE4=só pra mim
TTITLE5=mar e lua
TTITLE6=meu xodó
TTITLE7=viajando na canção
TTITLE8=amor infinito
TTITLE9=jeito manhoso
TTITLE10=coração em festa
TTITLE11=felicidade
TTITLE12=mar de olinda
TTITLE13=tê já
EXTD=danielsan
EXTT0=
EXTT1=
EXTT2=
EXTT3=
EXTT4=
EXTT5=
EXTT6=
EXTT7=
EXTT8=
EXTT9=
EXTT10=
EXTT11=
EXTT12=
EXTT13=
PLAYORDER=
